<svg xmlns="http://www.w3.org/2000/svg" version="1.1" xmlns:xlink="http://www.w3.org/1999/xlink" xmlns:svgjs="http://svgjs.dev/svgjs" viewBox="0 0 1422 800"><defs><radialGradient id="cccircular-grad" r="50%" cx="50%" cy="50%">
         <stop offset="15%" stop-color="#0f4500" stop-opacity="0.5"></stop>
         <stop offset="75%" stop-color="hsl(88, 92%, 23%)" stop-opacity="1"></stop>
          <stop offset="100%" stop-color="#9fd168" stop-opacity="1"></stop>
        </radialGradient></defs><g fill="url(#cccircular-grad)"><circle r="754" cx="711" cy="800" opacity="0.95"></circle><circle r="725" cx="711" cy="800" opacity="0.92"></circle><circle r="696" cx="711" cy="800" opacity="0.15"></circle><circle r="667" cx="711" cy="800" opacity="0.99"></circle><circle r="638" cx="711" cy="800" opacity="0.74"></circle><circle r="609" cx="711" cy="800" opacity="0.77"></circle><circle r="580" cx="711" cy="800" opacity="0.77"></circle><circle r="551" cx="711" cy="800" opacity="0.67"></circle><circle r="522" cx="711" cy="800" opacity="0.33"></circle><circle r="493" cx="711" cy="800" opacity="0.35"></circle><circle r="464" cx="711" cy="800" opacity="0.22"></circle><circle r="435" cx="711" cy="800" opacity="0.82"></circle><circle r="406" cx="711" cy="800" opacity="0.15"></circle><circle r="377" cx="711" cy="800" opacity="0.10"></circle><circle r="348" cx="711" cy="800" opacity="0.54"></circle><circle r="319" cx="711" cy="800" opacity="0.81"></circle><circle r="290" cx="711" cy="800" opacity="0.94"></circle><circle r="261" cx="711" cy="800" opacity="0.14"></circle><circle r="232" cx="711" cy="800" opacity="0.17"></circle><circle r="203" cx="711" cy="800" opacity="0.14"></circle><circle r="174" cx="711" cy="800" opacity="0.34"></circle><circle r="145" cx="711" cy="800" opacity="0.92"></circle><circle r="116" cx="711" cy="800" opacity="0.21"></circle><circle r="87" cx="711" cy="800" opacity="0.77"></circle><circle r="58" cx="711" cy="800" opacity="0.17"></circle></g></svg>