<svg xmlns="http://www.w3.org/2000/svg" version="1.1" xmlns:xlink="http://www.w3.org/1999/xlink" xmlns:svgjs="http://svgjs.dev/svgjs" viewBox="0 0 2400 800"><defs><linearGradient x1="50%" y1="0%" x2="50%" y2="100%" id="sssurf-grad"><stop stop-color="rgba(31, 173, 104, 0.42)" stop-opacity="1" offset="0%"></stop><stop stop-color="hsla(168, 30%, 78%, 0.23)" stop-opacity="1" offset="100%"></stop></linearGradient></defs><g fill="url(#sssurf-grad)" transform="matrix(1,0,0,1,0,-93.84158325195312)"><path d="M 0 293.6832016454864 Q 450 561.5366789837508 600 299.70562696612524 Q 1050 634.4746199401867 1200 300.7334467118461 Q 1650 569.1343910717754 1800 319.4179102339095 Q 2250 497.61022351099376 2400 304.0630189940726 L 2400 800 L 0 800 L 0 343.7812296008102 Z" transform="matrix(1,0,0,1,0,42)" opacity="0.05"></path><path d="M 0 293.6832016454864 Q 450 561.5366789837508 600 299.70562696612524 Q 1050 634.4746199401867 1200 300.7334467118461 Q 1650 569.1343910717754 1800 319.4179102339095 Q 2250 497.61022351099376 2400 304.0630189940726 L 2400 800 L 0 800 L 0 343.7812296008102 Z" transform="matrix(1,0,0,1,0,84)" opacity="0.24"></path><path d="M 0 293.6832016454864 Q 450 561.5366789837508 600 299.70562696612524 Q 1050 634.4746199401867 1200 300.7334467118461 Q 1650 569.1343910717754 1800 319.4179102339095 Q 2250 497.61022351099376 2400 304.0630189940726 L 2400 800 L 0 800 L 0 343.7812296008102 Z" transform="matrix(1,0,0,1,0,126)" opacity="0.43"></path><path d="M 0 293.6832016454864 Q 450 561.5366789837508 600 299.70562696612524 Q 1050 634.4746199401867 1200 300.7334467118461 Q 1650 569.1343910717754 1800 319.4179102339095 Q 2250 497.61022351099376 2400 304.0630189940726 L 2400 800 L 0 800 L 0 343.7812296008102 Z" transform="matrix(1,0,0,1,0,168)" opacity="0.62"></path><path d="M 0 293.6832016454864 Q 450 561.5366789837508 600 299.70562696612524 Q 1050 634.4746199401867 1200 300.7334467118461 Q 1650 569.1343910717754 1800 319.4179102339095 Q 2250 497.61022351099376 2400 304.0630189940726 L 2400 800 L 0 800 L 0 343.7812296008102 Z" transform="matrix(1,0,0,1,0,210)" opacity="0.81"></path><path d="M 0 293.6832016454864 Q 450 561.5366789837508 600 299.70562696612524 Q 1050 634.4746199401867 1200 300.7334467118461 Q 1650 569.1343910717754 1800 319.4179102339095 Q 2250 497.61022351099376 2400 304.0630189940726 L 2400 800 L 0 800 L 0 343.7812296008102 Z" transform="matrix(1,0,0,1,0,252)" opacity="1.00"></path></g></svg>