<svg width="1469" height="593" viewBox="0 0 1469 593" fill="none" xmlns="http://www.w3.org/2000/svg">
<g id="Vector 2" filter="url(#filter0_i_3_95)">
<path d="M-16 6C47.7251 12.1717 231.5 266.5 130 357.5C-8.18147 481.387 288.618 573.177 473.313 447.275C548.882 395.761 783.5 207.421 783.5 424.5C783.5 553.049 816 552 816 552C881.5 586.349 909 459 1009 459C1025.33 496.667 1067.1 564 1103.5 532C1139.9 500 1254.33 554.899 1307 586.349C1347.17 580.299 1433.3 571.829 1456.5 586.349C1539.3 586.349 1580.67 570.783 1591 563L1647.5 552" stroke="#14CF93" stroke-width="12" stroke-linecap="round"/>
<path d="M-16 6C47.7251 12.1717 231.5 266.5 130 357.5C-8.18147 481.387 288.618 573.177 473.313 447.275C548.882 395.761 783.5 207.421 783.5 424.5C783.5 553.049 816 552 816 552C881.5 586.349 909 459 1009 459C1025.33 496.667 1067.1 564 1103.5 532C1139.9 500 1254.33 554.899 1307 586.349C1347.17 580.299 1433.3 571.829 1456.5 586.349C1539.3 586.349 1580.67 570.783 1591 563L1647.5 552" stroke="#4F7942" stroke-opacity="0.1" stroke-width="12" stroke-linecap="round"/>
</g>
<defs>
<filter id="filter0_i_3_95" x="-22.0004" y="-0.000426292" width="1675.5" height="596.603" filterUnits="userSpaceOnUse" color-interpolation-filters="sRGB">
<feFlood flood-opacity="0" result="BackgroundImageFix"/>
<feBlend mode="normal" in="SourceGraphic" in2="BackgroundImageFix" result="shape"/>
<feColorMatrix in="SourceAlpha" type="matrix" values="0 0 0 0 0 0 0 0 0 0 0 0 0 0 0 0 0 0 127 0" result="hardAlpha"/>
<feOffset dy="4"/>
<feGaussianBlur stdDeviation="2"/>
<feComposite in2="hardAlpha" operator="arithmetic" k2="-1" k3="1"/>
<feColorMatrix type="matrix" values="0 0 0 0 0 0 0 0 0 0 0 0 0 0 0 0 0 0 0.25 0"/>
<feBlend mode="normal" in2="shape" result="effect1_innerShadow_3_95"/>
</filter>
</defs>
</svg>
