<svg width="1469" height="602" viewBox="0 0 1469 602" fill="none" xmlns="http://www.w3.org/2000/svg">
<g id="Vector 2" filter="url(#filter0_i_3_95)">
<path d="M-16 6C47.7252 12.1717 172.573 154.861 115.771 260.273C-60.8236 587.989 288.618 573.177 473.313 447.275C548.882 395.761 643.967 302.24 706.612 472.579C756.728 608.849 787.585 520.718 787.585 520.718C796.226 479.367 819.016 406.788 841.05 447.275C868.592 497.882 925.296 531.827 968.5 502.203C1125.65 399.136 1147.79 333.716 1210.44 434.931C1273.08 536.147 1247.7 697.845 1500.98 574.411C1515.38 561.039 1548.94 552.193 1567.95 623.785C1586.96 695.376 1675.24 721.091 1717 725" stroke="#14CF93" stroke-width="12" stroke-linecap="round"/>
<path d="M-16 6C47.7252 12.1717 172.573 154.861 115.771 260.273C-60.8236 587.989 288.618 573.177 473.313 447.275C548.882 395.761 643.967 302.24 706.612 472.579C756.728 608.849 787.585 520.718 787.585 520.718C796.226 479.367 819.016 406.788 841.05 447.275C868.592 497.882 925.296 531.827 968.5 502.203C1125.65 399.136 1147.79 333.716 1210.44 434.931C1273.08 536.147 1247.7 697.845 1500.98 574.411C1515.38 561.039 1548.94 552.193 1567.95 623.785C1586.96 695.376 1675.24 721.091 1717 725" stroke="#4F7942" stroke-opacity="0.1" stroke-width="12" stroke-linecap="round"/>
</g>
<defs>
<filter id="filter0_i_3_95" x="-22.0004" y="-0.000426292" width="1745" height="735.001" filterUnits="userSpaceOnUse" color-interpolation-filters="sRGB">
<feFlood flood-opacity="0" result="BackgroundImageFix"/>
<feBlend mode="normal" in="SourceGraphic" in2="BackgroundImageFix" result="shape"/>
<feColorMatrix in="SourceAlpha" type="matrix" values="0 0 0 0 0 0 0 0 0 0 0 0 0 0 0 0 0 0 127 0" result="hardAlpha"/>
<feOffset dy="4"/>
<feGaussianBlur stdDeviation="2"/>
<feComposite in2="hardAlpha" operator="arithmetic" k2="-1" k3="1"/>
<feColorMatrix type="matrix" values="0 0 0 0 0 0 0 0 0 0 0 0 0 0 0 0 0 0 0.25 0"/>
<feBlend mode="normal" in2="shape" result="effect1_innerShadow_3_95"/>
</filter>
</defs>
</svg>
