<svg width="1469" height="602" viewBox="0 0 1469 602" fill="none" xmlns="http://www.w3.org/2000/svg">
<g id="Vector 2" filter="url(#filter0_i_3_95)">
<path d="M-16 6C47.7251 12.1717 80.7514 193.517 108.5 310C154 501 288.618 573.177 473.313 447.275C548.882 395.761 727 255.5 727 472.579C727 601.127 816 520.718 816 520.718C881.5 586.349 887 447.275 916 499L939.5 544.5C996 675.5 1016.22 485.685 1105.5 472.579C1198 459 1258 572.399 1307 586.349C1332.52 587.754 1353 634.151 1471 508.5" stroke="#14CF93" stroke-width="12" stroke-linecap="round"/>
<path d="M-16 6C47.7251 12.1717 80.7514 193.517 108.5 310C154 501 288.618 573.177 473.313 447.275C548.882 395.761 727 255.5 727 472.579C727 601.127 816 520.718 816 520.718C881.5 586.349 887 447.275 916 499L939.5 544.5C996 675.5 1016.22 485.685 1105.5 472.579C1198 459 1258 572.399 1307 586.349C1332.52 587.754 1353 634.151 1471 508.5" stroke="#4F7942" stroke-opacity="0.1" stroke-width="12" stroke-linecap="round"/>
</g>
<defs>
<filter id="filter0_i_3_95" x="-22.0004" y="-0.000426292" width="1499" height="605.863" filterUnits="userSpaceOnUse" color-interpolation-filters="sRGB">
<feFlood flood-opacity="0" result="BackgroundImageFix"/>
<feBlend mode="normal" in="SourceGraphic" in2="BackgroundImageFix" result="shape"/>
<feColorMatrix in="SourceAlpha" type="matrix" values="0 0 0 0 0 0 0 0 0 0 0 0 0 0 0 0 0 0 127 0" result="hardAlpha"/>
<feOffset dy="4"/>
<feGaussianBlur stdDeviation="2"/>
<feComposite in2="hardAlpha" operator="arithmetic" k2="-1" k3="1"/>
<feColorMatrix type="matrix" values="0 0 0 0 0 0 0 0 0 0 0 0 0 0 0 0 0 0 0.25 0"/>
<feBlend mode="normal" in2="shape" result="effect1_innerShadow_3_95"/>
</filter>
</defs>
</svg>
